<?xml version="1.0" encoding="utf-8"?>
<!-- Generator: Adobe Illustrator 16.0.0, SVG Export Plug-In . SVG Version: 6.00 Build 0)  -->
<!DOCTYPE svg PUBLIC "-//W3C//DTD SVG 1.1//EN" "http://www.w3.org/Graphics/SVG/1.1/DTD/svg11.dtd">
<svg version="1.1" id="Layer_1" xmlns="http://www.w3.org/2000/svg" xmlns:xlink="http://www.w3.org/1999/xlink" x="0px" y="0px"
	 width="415.2px" height="467px" viewBox="0 0 415.2 467" style="enable-background:new 0 0 415.2 467;" xml:space="preserve">
<style type="text/css">
<![CDATA[
	.st0{fill:#FFFFFF;}
]]>
</style>
<g>
	<g>
		<path class="st0" d="M79.8,67.8c2.7,2.1,9,7,13.1,1.8c19-24.4,45.6-40.2,75.4-45.2c15.7-2.7,31.6-2.2,47.1,1.4
			C237,31,256.8,42,272.5,57.7c20.5,20.4,32.8,47.5,34.8,76.1l-1.2,0.9l-11-1.4c-6.2-0.8-8.8,2.4-9.6,3.9c-0.8,1.4-2.3,5.3,1.6,10.2
			l20.2,25.9c4.7,4.7,12.3,5.2,17.6,1.1l24.7-19c3.3-2.5,4.2-5.3,4.3-7.1c0.3-4.3-3.1-7.9-8.6-8.6l-12.1-1.5c-1.4-0.2-3-2-3.1-3.6
			c-1.8-35.1-16.6-68.1-41.6-93c-18.8-18.7-42.3-31.8-68.2-37.8c-18.4-4.3-37.3-4.9-56-1.8c-35.5,6-67.1,24.8-89,52.9
			c-1.8,2.4-3.3,5.7,1.2,10.2C77.5,65.9,78.6,66.8,79.8,67.8z M392.2,241.3H214.7v31h156.2c3.5,0,6.3,2.8,6.3,6.3v125.8
			c0,3.5-2.8,6.3-6.3,6.3H214.7v31h177.5c12.7,0,23-10.3,23-23V264.2C415.2,251.5,404.9,241.3,392.2,241.3z M177.9,126.3H23
			c-12.7,0-23,10.3-23,23V444c0,12.7,10.3,23,23,23h154.9c12.7,0,23-10.3,23-23V149.3C200.9,136.6,190.6,126.3,177.9,126.3z
			 M100.1,453c-8,0-14.5-6.5-14.5-14.5s6.5-14.5,14.5-14.5c8,0,14.5,6.5,14.5,14.5C114.6,446.5,108.1,453,100.1,453z M169.8,397.5
			c0,3.5-2.8,6.3-6.3,6.3H37.4c-3.5,0-6.3-2.8-6.3-6.3V170.6h0c0-3.5,2.8-6.3,6.3-6.3h126.1c3.5,0,6.3,2.8,6.3,6.3V397.5z"/>
	</g>
</g>
</svg>
